ISO-10303-21;
HEADER;
FILE_DESCRIPTION (( 'STEP AP214' ),
    '1' );
FILE_NAME ('Viper Rover.STEP',
    '2025-10-31T16:01:16',
    ( '' ),
    ( '' ),
    'SwSTEP 2.0',
    'SolidWorks 2024',
    '' );
FILE_SCHEMA (( 'AUTOMOTIVE_DESIGN' ));
ENDSEC;

DATA;
#1 = EDGE_LOOP ( 'NONE', ( #676, #524, #157, #554, #426, #623, #134, #366 ) ) ;
#2 = PLANE ( 'NONE',  #190 ) ;
#3 = EDGE_CURVE ( 'NONE', #225, #83, #352, .T. ) ;
#4 = VERTEX_POINT ( 'NONE', #287 ) ;
#5 = CARTESIAN_POINT ( 'NONE',  ( -0.5150000000000000133, 0.000000000000000000, -0.7650000000000000133 ) ) ;
#6 = AXIS2_PLACEMENT_3D ( 'NONE', #135, #295, #610 ) ;
#7 = AXIS2_PLACEMENT_3D ( 'NONE', #122, #125, #444 ) ;
#8 = DIRECTION ( 'NONE',  ( 1.000000000000000000, 0.000000000000000000, 0.000000000000000000 ) ) ;
#9 = PLANE ( 'NONE',  #613 ) ;
#10 = EDGE_CURVE ( 'NONE', #147, #53, #179, .T. ) ;
#11 = DIRECTION ( 'NONE',  ( -0.000000000000000000, 0.1736481776669303867, 0.9848077530122081313 ) ) ;
#12 = DIRECTION ( 'NONE',  ( -1.000000000000000000, 0.000000000000000000, 0.000000000000000000 ) ) ;
#13 = EDGE_CURVE ( 'NONE', #225, #561, #335, .T. ) ;
#14 = DIRECTION ( 'NONE',  ( -0.000000000000000000, -0.000000000000000000, -1.000000000000000000 ) ) ;
#15 = CARTESIAN_POINT ( 'NONE',  ( 0.5150000000000000133, 0.000000000000000000, -0.7650000000000000133 ) ) ;
#16 = AXIS2_PLACEMENT_3D ( 'NONE', #362, #517, #528 ) ;
#17 = CARTESIAN_POINT ( 'NONE',  ( 0.5150000000000000133, 0.000000000000000000, -0.2650000000000000133 ) ) ;
#18 = EDGE_CURVE ( 'NONE', #410, #605, #592, .T. ) ;
#19 = FACE_OUTER_BOUND ( 'NONE', #312, .T. ) ;
#20 = DIRECTION ( 'NONE',  ( 0.000000000000000000, 0.1736481776669303867, 0.9848077530122081313 ) ) ;
#21 = DIRECTION ( 'NONE',  ( 0.000000000000000000, -0.1736481776669303867, -0.9848077530122081313 ) ) ;
#22 = CIRCLE ( 'NONE', #117, 0.2500000000000001110 ) ;
#23 = CARTESIAN_POINT ( 'NONE',  ( 0.5150000000000000133, 0.000000000000000000, -1.472106781186547586 ) ) ;
#24 = CIRCLE ( 'NONE', #501, 0.2500000000000001665 ) ;
#25 = DIRECTION ( 'NONE',  ( -1.000000000000000000, 0.000000000000000000, 0.000000000000000000 ) ) ;
#26 = EDGE_CURVE ( 'NONE', #527, #603, #443, .T. ) ;
#27 = STYLED_ITEM ( 'NONE', ( #191 ), #655 ) ;
#28 = AXIS2_PLACEMENT_3D ( 'NONE', #17, #486, #8 ) ;
#29 = ORIENTED_EDGE ( 'NONE', *, *, #324, .T. ) ;
#30 = SURFACE_STYLE_FILL_AREA ( #246 ) ;
#31 = CARTESIAN_POINT ( 'NONE',  ( -1.234999999999999876, 0.000000000000000000, -0.2650000000000000133 ) ) ;
#32 = CLOSED_SHELL ( 'NONE', ( #580, #416, #645, #496, #224, #681, #47, #264, #278, #63, #407, #640, #297, #100, #482, #228, #661, #607, #139, #199, #393, #319, #145, #155, #271, #631 ) ) ;
#33 = EDGE_CURVE ( 'NONE', #414, #430, #182, .T. ) ;
#34 = DIRECTION ( 'NONE',  ( 1.000000000000000000, 0.000000000000000000, 0.000000000000000000 ) ) ;
#35 = LINE ( 'NONE', #140, #334 ) ;
#36 = AXIS2_PLACEMENT_3D ( 'NONE', #658, #465, #552 ) ;
#37 = EDGE_CURVE ( 'NONE', #605, #410, #595, .T. ) ;
#38 = ORIENTED_EDGE ( 'NONE', *, *, #429, .F. ) ;
#39 = ORIENTED_EDGE ( 'NONE', *, *, #572, .F. ) ;
#40 = DIRECTION ( 'NONE',  ( 0.000000000000000000, 0.000000000000000000, -1.000000000000000000 ) ) ;
#41 = DIRECTION ( 'NONE',  ( 1.000000000000000000, 0.000000000000000000, 0.000000000000000000 ) ) ;
#42 = ORIENTED_EDGE ( 'NONE', *, *, #193, .F. ) ;
#43 = VERTEX_POINT ( 'NONE', #67 ) ;
#44 = FILL_AREA_STYLE_COLOUR ( '', #76 ) ;
#45 = AXIS2_PLACEMENT_3D ( 'NONE', #480, #317, #220 ) ;
#46 = CARTESIAN_POINT ( 'NONE',  ( 0.5150000000000000133, 0.000000000000000000, 0.7650000000000000133 ) ) ;
#47 = ADVANCED_FACE ( 'NONE', ( #650 ), #9, .F. ) ;
#48 = ORIENTED_EDGE ( 'NONE', *, *, #274, .T. ) ;
#49 = ORIENTED_EDGE ( 'NONE', *, *, #127, .F. ) ;
#50 = APPLICATION_PROTOCOL_DEFINITION ( 'draft international standard', 'automotive_design', 1998, #188 ) ;
#51 = CARTESIAN_POINT ( 'NONE',  ( -0.5150000000000000133, 0.000000000000000000, 0.2650000000000001243 ) ) ;
#52 = AXIS2_PLACEMENT_3D ( 'NONE', #208, #556, #305 ) ;
#53 = VERTEX_POINT ( 'NONE', #439 ) ;
#54 = ORIENTED_EDGE ( 'NONE', *, *, #60, .F. ) ;
#55 = DIRECTION ( 'NONE',  ( 1.000000000000000000, -0.000000000000000000, -0.000000000000000000 ) ) ;
#56 = EDGE_LOOP ( 'NONE', ( #564, #87, #457, #142, #94, #146 ) ) ;
#57 = SHAPE_DEFINITION_REPRESENTATION ( #186, #553 ) ;
#58 = CARTESIAN_POINT ( 'NONE',  ( -0.5150000000000000133, 0.000000000000000000, 1.472106781186548030 ) ) ;
#59 = ORIENTED_EDGE ( 'NONE', *, *, #331, .T. ) ;
#60 = EDGE_CURVE ( 'NONE', #603, #103, #121, .T. ) ;
#61 = DIRECTION ( 'NONE',  ( 0.000000000000000000, -0.000000000000000000, -1.000000000000000000 ) ) ;
#62 = EDGE_LOOP ( 'NONE', ( #42, #151, #290, #576 ) ) ;
#63 = ADVANCED_FACE ( 'NONE', ( #80 ), #338, .F. ) ;
#64 = LINE ( 'NONE', #522, #667 ) ;
#65 = CARTESIAN_POINT ( 'NONE',  ( 0.5150000000000000133, 0.000000000000000000, 0.2650000000000000133 ) ) ;
#66 = VECTOR ( 'NONE', #502, 1.000000000000000000 ) ;
#67 = CARTESIAN_POINT ( 'NONE',  ( -0.7650000000000001243, 1.100000000000000089, -0.7650000000000000133 ) ) ;
#68 = DIRECTION ( 'NONE',  ( -1.000000000000000000, 0.000000000000000000, 0.000000000000000000 ) ) ;
#69 = DIRECTION ( 'NONE',  ( 0.000000000000000000, 0.000000000000000000, -1.000000000000000000 ) ) ;
#70 = EDGE_CURVE ( 'NONE', #253, #609, #275, .T. ) ;
#71 = CARTESIAN_POINT ( 'NONE',  ( -0.2649999999999998468, 0.000000000000000000, 0.2650000000000001243 ) ) ;
#72 = CARTESIAN_POINT ( 'NONE',  ( 0.000000000000000000, 1.011836509645767546, -0.2650000000000000133 ) ) ;
#73 = EDGE_CURVE ( 'NONE', #609, #410, #285, .T. ) ;
#74 = CARTESIAN_POINT ( 'NONE',  ( 0.7649999999999999023, 0.000000000000000000, -0.2650000000000000133 ) ) ;
#75 = DIRECTION ( 'NONE',  ( 0.000000000000000000, -0.000000000000000000, 1.000000000000000000 ) ) ;
#76 = COLOUR_RGB ( '',0.7921568627450980005, 0.8196078431372548767, 0.9333333333333333481 ) ;
#77 = CIRCLE ( 'NONE', #169, 0.2500000000000001665 ) ;
#78 = EDGE_CURVE ( 'NONE', #161, #652, #477, .T. ) ;
#79 = CARTESIAN_POINT ( 'NONE',  ( 0.7650000000000000133, 1.133169058567750742, -0.9531110788291178304 ) ) ;
#80 = FACE_OUTER_BOUND ( 'NONE', #1, .T. ) ;
#81 = CARTESIAN_POINT ( 'NONE',  ( 0.7650000000000000133, 2.200000000000000178, 0.7650000000000000133 ) ) ;
#82 = DIRECTION ( 'NONE',  ( 1.000000000000000000, 0.000000000000000000, 0.000000000000000000 ) ) ;
#83 = VERTEX_POINT ( 'NONE', #184 ) ;
#84 = LINE ( 'NONE', #31, #110 ) ;
#85 = EDGE_CURVE ( 'NONE', #405, #561, #494, .T. ) ;
#86 = VECTOR ( 'NONE', #187, 1.000000000000000000 ) ;
#87 = ORIENTED_EDGE ( 'NONE', *, *, #18, .T. ) ;
#88 = CARTESIAN_POINT ( 'NONE',  ( -0.7650000000000000133, 2.200000000000000178, 0.7650000000000000133 ) ) ;
#89 = CARTESIAN_POINT ( 'NONE',  ( 0.2650000000000000688, 3.061616997868382402E-17, -0.7650000000000000133 ) ) ;
#90 = VECTOR ( 'NONE', #384, 1.000000000000000000 ) ;
#91 = CARTESIAN_POINT ( 'NONE',  ( -0.7650000000000001243, 0.000000000000000000, 0.7650000000000000133 ) ) ;
#92 = CARTESIAN_POINT ( 'NONE',  ( -0.7650000000000000133, 2.200000000000000178, -0.7650000000000000133 ) ) ;
#93 = ORIENTED_EDGE ( 'NONE', *, *, #112, .T. ) ;
#94 = ORIENTED_EDGE ( 'NONE', *, *, #586, .T. ) ;
#95 = PLANE ( 'NONE',  #250 ) ;
#96 = DIRECTION ( 'NONE',  ( -0.000000000000000000, -1.000000000000000000, -0.000000000000000000 ) ) ;
#97 = ORIENTED_EDGE ( 'NONE', *, *, #112, .F. ) ;
#98 = ORIENTED_EDGE ( 'NONE', *, *, #260, .F. ) ;
#99 = AXIS2_PLACEMENT_3D ( 'NONE', #566, #526, #263 ) ;
#100 = ADVANCED_FACE ( 'NONE', ( #19 ), #492, .F. ) ;
#101 = DIRECTION ( 'NONE',  ( -0.000000000000000000, -0.000000000000000000, 1.000000000000000000 ) ) ;
#102 = ORIENTED_EDGE ( 'NONE', *, *, #586, .F. ) ;
#103 = VERTEX_POINT ( 'NONE', #189 ) ;
#104 = EDGE_CURVE ( 'NONE', #430, #405, #399, .T. ) ;
#105 = DIRECTION ( 'NONE',  ( 0.000000000000000000, 0.000000000000000000, -1.000000000000000000 ) ) ;
#106 = ORIENTED_EDGE ( 'NONE', *, *, #274, .F. ) ;
#107 = ORIENTED_EDGE ( 'NONE', *, *, #466, .F. ) ;
#108 = CARTESIAN_POINT ( 'NONE',  ( 0.5150000000000000133, 0.000000000000000000, 0.7650000000000000133 ) ) ;
#109 = ORIENTED_EDGE ( 'NONE', *, *, #331, .F. ) ;
#110 = VECTOR ( 'NONE', #456, 1.000000000000000000 ) ;
#111 = LINE ( 'NONE', #376, #463 ) ;
#112 = EDGE_CURVE ( 'NONE', #652, #161, #22, .T. ) ;
#113 = ORIENTED_EDGE ( 'NONE', *, *, #70, .F. ) ;
#114 = CARTESIAN_POINT ( 'NONE',  ( -0.7650000000000000133, 2.200000000000000178, 0.7650000000000000133 ) ) ;
#115 = ORIENTED_EDGE ( 'NONE', *, *, #127, .T. ) ;
#116 = DIRECTION ( 'NONE',  ( 0.000000000000000000, 0.9848077530122081313, -0.1736481776669303867 ) ) ;
#117 = AXIS2_PLACEMENT_3D ( 'NONE', #441, #560, #25 ) ;
#118 = CARTESIAN_POINT ( 'NONE',  ( 0.7649999999999996803, 1.100000000000000089, 0.7650000000000000133 ) ) ;
#119 = VECTOR ( 'NONE', #406, 1.000000000000000000 ) ;
#120 = CARTESIAN_POINT ( 'NONE',  ( -0.5150000000000000133, 0.000000000000000000, 0.7650000000000000133 ) ) ;
#121 = CIRCLE ( 'NONE', #538, 0.2500000000000001110 ) ;
#122 = CARTESIAN_POINT ( 'NONE',  ( -0.5150000000000000133, 0.000000000000000000, -0.2650000000000000133 ) ) ;
#123 = DIRECTION ( 'NONE',  ( 0.000000000000000000, 0.000000000000000000, 1.000000000000000000 ) ) ;
#124 = CIRCLE ( 'NONE', #519, 0.2500000000000001110 ) ;
#125 = DIRECTION ( 'NONE',  ( 0.000000000000000000, 0.000000000000000000, -1.000000000000000000 ) ) ;
#126 = CARTESIAN_POINT ( 'NONE',  ( -0.7650000000000000133, 0.000000000000000000, -0.7650000000000000133 ) ) ;
#127 = EDGE_CURVE ( 'NONE', #103, #430, #289, .T. ) ;
#128 = CARTESIAN_POINT ( 'NONE',  ( -0.9717418557618300312, 1.100000000000000089, 0.7650000000000000133 ) ) ;
#129 = CARTESIAN_POINT ( 'NONE',  ( 0.000000000000000000, 0.000000000000000000, 0.000000000000000000 ) ) ;
#130 = AXIS2_PLACEMENT_3D ( 'NONE', #108, #630, #223 ) ;
#131 = LINE ( 'NONE', #649, #598 ) ;
#132 = CARTESIAN_POINT ( 'NONE',  ( 0.7650000000000000133, 2.200000000000000178, -0.7650000000000000133 ) ) ;
#133 = AXIS2_PLACEMENT_3D ( 'NONE', #240, #408, #354 ) ;
#134 = ORIENTED_EDGE ( 'NONE', *, *, #470, .T. ) ;
#135 = CARTESIAN_POINT ( 'NONE',  ( -0.5150000000000000133, 0.000000000000000000, 1.472106781186548030 ) ) ;
#136 = EDGE_CURVE ( 'NONE', #520, #422, #498, .T. ) ;
#137 = PLANE ( 'NONE',  #178 ) ;
#138 = DIRECTION ( 'NONE',  ( 0.000000000000000000, -0.000000000000000000, 1.000000000000000000 ) ) ;
#139 = ADVANCED_FACE ( 'NONE', ( #415 ), #672, .T. ) ;
#140 = CARTESIAN_POINT ( 'NONE',  ( -0.7650000000000000133, 2.200000000000000178, -0.7650000000000000133 ) ) ;
#141 = APPLICATION_CONTEXT ( 'automotive_design' ) ;
#142 = ORIENTED_EDGE ( 'NONE', *, *, #3, .F. ) ;
#143 = LINE ( 'NONE', #660, #66 ) ;
#144 = PLANE ( 'NONE',  #133 ) ;
#145 = ADVANCED_FACE ( 'NONE', ( #611 ), #292, .F. ) ;
#146 = ORIENTED_EDGE ( 'NONE', *, *, #70, .T. ) ;
#147 = VERTEX_POINT ( 'NONE', #89 ) ;
#148 = LINE ( 'NONE', #657, #200 ) ;
#149 = DIRECTION ( 'NONE',  ( -0.000000000000000000, -0.000000000000000000, 1.000000000000000000 ) ) ;
#150 = EDGE_CURVE ( 'NONE', #83, #225, #219, .T. ) ;
#151 = ORIENTED_EDGE ( 'NONE', *, *, #10, .T. ) ;
#152 = ORIENTED_EDGE ( 'NONE', *, *, #174, .F. ) ;
#153 = CARTESIAN_POINT ( 'NONE',  ( -0.7650000000000000133, 2.200000000000000178, -0.7650000000000000133 ) ) ;
#154 = CARTESIAN_POINT ( 'NONE',  ( 0.000000000000000000, 0.000000000000000000, -0.2650000000000000133 ) ) ;
#155 = ADVANCED_FACE ( 'NONE', ( #198 ), #144, .T. ) ;
#156 = ORIENTED_EDGE ( 'NONE', *, *, #466, .T. ) ;
#157 = ORIENTED_EDGE ( 'NONE', *, *, #26, .F. ) ;
#158 = AXIS2_PLACEMENT_3D ( 'NONE', #495, #491, #68 ) ;
#159 = FACE_OUTER_BOUND ( 'NONE', #617, .T. ) ;
#160 = VECTOR ( 'NONE', #593, 1.000000000000000000 ) ;
#161 = VERTEX_POINT ( 'NONE', #196 ) ;
#162 = EDGE_LOOP ( 'NONE', ( #97, #659 ) ) ;
#163 = FACE_OUTER_BOUND ( 'NONE', #565, .T. ) ;
#164 = ORIENTED_EDGE ( 'NONE', *, *, #542, .T. ) ;
#165 = DIRECTION ( 'NONE',  ( -1.000000000000000000, 0.000000000000000000, 0.000000000000000000 ) ) ;
#166 = ORIENTED_EDGE ( 'NONE', *, *, #380, .T. ) ;
#167 = PLANE ( 'NONE',  #16 ) ;
#168 = CARTESIAN_POINT ( 'NONE',  ( -1.234999999999999876, 0.000000000000000000, 0.2650000000000000133 ) ) ;
#169 = AXIS2_PLACEMENT_3D ( 'NONE', #51, #61, #432 ) ;
#170 = ORIENTED_EDGE ( 'NONE', *, *, #242, .F. ) ;
#171 = DIRECTION ( 'NONE',  ( 0.000000000000000000, 0.1736481776669303867, -0.9848077530122081313 ) ) ;
#172 = AXIS2_PLACEMENT_3D ( 'NONE', #515, #507, #349 ) ;
#173 = AXIS2_PLACEMENT_3D ( 'NONE', #412, #459, #346 ) ;
#174 = EDGE_CURVE ( 'NONE', #561, #527, #124, .T. ) ;
#175 = CARTESIAN_POINT ( 'NONE',  ( -0.7649999999999999023, 3.061616997868383018E-17, -0.7650000000000000133 ) ) ;
#176 = DIRECTION ( 'NONE',  ( -1.000000000000000000, 0.000000000000000000, 0.000000000000000000 ) ) ;
#177 = CARTESIAN_POINT ( 'NONE',  ( 0.7650000000000000133, 2.200000000000000178, -0.7650000000000000133 ) ) ;
#178 = AXIS2_PLACEMENT_3D ( 'NONE', #668, #41, #550 ) ;
#179 = CIRCLE ( 'NONE', #206, 0.2499999999999998890 ) ;
#180 = DIRECTION ( 'NONE',  ( 1.000000000000000000, 0.000000000000000000, 0.000000000000000000 ) ) ;
#181 = EDGE_CURVE ( 'NONE', #516, #4, #35, .T. ) ;
#182 = LINE ( 'NONE', #230, #583 ) ;
#183 = LINE ( 'NONE', #438, #579 ) ;
#184 = CARTESIAN_POINT ( 'NONE',  ( -0.2650000000000000688, 0.000000000000000000, -0.2650000000000000133 ) ) ;
#185 = EDGE_CURVE ( 'NONE', #618, #248, #24, .T. ) ;
#186 = PRODUCT_DEFINITION_SHAPE ( 'NONE', 'NONE',  #318 ) ;
#187 = DIRECTION ( 'NONE',  ( -0.000000000000000000, -1.000000000000000000, -0.000000000000000000 ) ) ;
#188 = APPLICATION_CONTEXT ( 'automotive_design' ) ;
#189 = CARTESIAN_POINT ( 'NONE',  ( 0.7650000000000000133, 0.000000000000000000, 0.2650000000000000133 ) ) ;
#190 = AXIS2_PLACEMENT_3D ( 'NONE', #154, #105, #531 ) ;
#191 = PRESENTATION_STYLE_ASSIGNMENT (( #653 ) ) ;
#192 = FACE_OUTER_BOUND ( 'NONE', #475, .T. ) ;
#193 = EDGE_CURVE ( 'NONE', #147, #605, #247, .T. ) ;
#194 = ORIENTED_EDGE ( 'NONE', *, *, #60, .T. ) ;
#195 = DIRECTION ( 'NONE',  ( 0.000000000000000000, -0.1736481776669303867, 0.9848077530122081313 ) ) ;
#196 = CARTESIAN_POINT ( 'NONE',  ( -0.2649999999999998468, 3.061616997868384867E-17, 0.7650000000000000133 ) ) ;
#197 = PLANE ( 'NONE',  #397 ) ;
#198 = FACE_OUTER_BOUND ( 'NONE', #360, .T. ) ;
#199 = ADVANCED_FACE ( 'NONE', ( #654 ), #662, .F. ) ;
#200 = VECTOR ( 'NONE', #343, 1.000000000000000000 ) ;
#201 = VECTOR ( 'NONE', #340, 1.000000000000000000 ) ;
#202 = ORIENTED_EDGE ( 'NONE', *, *, #429, .T. ) ;
#203 = ORIENTED_EDGE ( 'NONE', *, *, #136, .F. ) ;
#204 = CARTESIAN_POINT ( 'NONE',  ( 0.7650000000000001243, 3.061616997868385483E-17, 0.7650000000000000133 ) ) ;
#205 = DIRECTION ( 'NONE',  ( 0.000000000000000000, 1.000000000000000000, 0.000000000000000000 ) ) ;
#206 = AXIS2_PLACEMENT_3D ( 'NONE', #15, #487, #535 ) ;
#207 = ORIENTED_EDGE ( 'NONE', *, *, #85, .T. ) ;
#208 = CARTESIAN_POINT ( 'NONE',  ( -0.5150000000000000133, 0.000000000000000000, -0.2650000000000000133 ) ) ;
#209 = EDGE_LOOP ( 'NONE', ( #320, #48, #581, #513 ) ) ;
#210 = ORIENTED_EDGE ( 'NONE', *, *, #454, .T. ) ;
#211 = DIRECTION ( 'NONE',  ( 1.000000000000000000, 0.000000000000000000, 0.000000000000000000 ) ) ;
#212 = VECTOR ( 'NONE', #344, 1.000000000000000000 ) ;
#213 = VERTEX_POINT ( 'NONE', #620 ) ;
#214 = ORIENTED_EDGE ( 'NONE', *, *, #104, .T. ) ;
#215 = DIRECTION ( 'NONE',  ( -1.000000000000000000, 0.000000000000000000, 0.000000000000000000 ) ) ;
#216 = AXIS2_PLACEMENT_3D ( 'NONE', #129, #541, #75 ) ;
#217 = ORIENTED_EDGE ( 'NONE', *, *, #421, .F. ) ;
#218 =( NAMED_UNIT ( * ) PLANE_ANGLE_UNIT ( ) SI_UNIT ( $, .RADIAN. ) );
#219 = CIRCLE ( 'NONE', #52, 0.2499999999999998890 ) ;
#220 = DIRECTION ( 'NONE',  ( 1.000000000000000000, 0.000000000000000000, -0.000000000000000000 ) ) ;
#221 = ORIENTED_EDGE ( 'NONE', *, *, #26, .T. ) ;
#222 = DIRECTION ( 'NONE',  ( 1.000000000000000000, 0.000000000000000000, -0.000000000000000000 ) ) ;
#223 = DIRECTION ( 'NONE',  ( -1.000000000000000000, 0.000000000000000000, 0.000000000000000000 ) ) ;
#224 = ADVANCED_FACE ( 'NONE', ( #192 ), #137, .F. ) ;
#225 = VERTEX_POINT ( 'NONE', #249 ) ;
#226 = DIRECTION ( 'NONE',  ( 0.000000000000000000, 0.000000000000000000, 1.000000000000000000 ) ) ;
#227 = AXIS2_PLACEMENT_3D ( 'NONE', #58, #259, #165 ) ;
#228 = ADVANCED_FACE ( 'NONE', ( #504 ), #255, .T. ) ;
#229 = PLANE ( 'NONE',  #7 ) ;
#230 = CARTESIAN_POINT ( 'NONE',  ( 0.7650000000000000133, 0.8715236489236135586, -0.5307537760721020570 ) ) ;
#231 = CARTESIAN_POINT ( 'NONE',  ( -0.2649999999999998468, 3.061616997868384867E-17, 1.472106781186548030 ) ) ;
#232 = CARTESIAN_POINT ( 'NONE',  ( -0.7650000000000000133, 2.200000000000000178, 0.2650000000000000133 ) ) ;
#233 = CARTESIAN_POINT ( 'NONE',  ( -0.2650000000000000688, 0.000000000000000000, -0.7650000000000000133 ) ) ;
#234 = CARTESIAN_POINT ( 'NONE',  ( -1.234999999999999876, 0.000000000000000000, 0.2650000000000000133 ) ) ;
#235 = AXIS2_PLACEMENT_3D ( 'NONE', #642, #388, #176 ) ;
#236 = DIRECTION ( 'NONE',  ( 0.000000000000000000, 0.000000000000000000, 1.000000000000000000 ) ) ;
#237 = DIRECTION ( 'NONE',  ( -0.000000000000000000, -0.000000000000000000, 1.000000000000000000 ) ) ;
#238 = CARTESIAN_POINT ( 'NONE',  ( 0.5150000000000000133, 0.000000000000000000, -0.2650000000000001243 ) ) ;
#239 = PLANE ( 'NONE',  #433 ) ;
#240 = CARTESIAN_POINT ( 'NONE',  ( -0.5150000000000000133, 0.000000000000000000, 0.2650000000000000133 ) ) ;
#241 = AXIS2_PLACEMENT_3D ( 'NONE', #128, #116, #20 ) ;
#242 = EDGE_CURVE ( 'NONE', #225, #83, #84, .T. ) ;
#243 = CARTESIAN_POINT ( 'NONE',  ( 0.2650000000000000688, 0.000000000000000000, -0.2650000000000001243 ) ) ;
#244 = DIRECTION ( 'NONE',  ( 0.000000000000000000, 0.000000000000000000, 1.000000000000000000 ) ) ;
#245 = EDGE_LOOP ( 'NONE', ( #674, #460, #29, #303 ) ) ;
#246 = FILL_AREA_STYLE ('',( #44 ) ) ;
#247 = LINE ( 'NONE', #608, #212 ) ;
#248 = VERTEX_POINT ( 'NONE', #296 ) ;
#249 = CARTESIAN_POINT ( 'NONE',  ( -0.7650000000000000133, 0.000000000000000000, -0.2650000000000000133 ) ) ;
#250 = AXIS2_PLACEMENT_3D ( 'NONE', #559, #138, #615 ) ;
#251 = VECTOR ( 'NONE', #478, 1.000000000000000000 ) ;
#252 = ORIENTED_EDGE ( 'NONE', *, *, #488, .T. ) ;
#253 = VERTEX_POINT ( 'NONE', #563 ) ;
#254 =( NAMED_UNIT ( * ) SI_UNIT ( $, .STERADIAN. ) SOLID_ANGLE_UNIT ( ) );
#255 = CYLINDRICAL_SURFACE ( 'NONE', #173, 0.2499999999999999445 ) ;
#256 = ORIENTED_EDGE ( 'NONE', *, *, #361, .T. ) ;
#257 = ORIENTED_EDGE ( 'NONE', *, *, #437, .F. ) ;
#258 = DIRECTION ( 'NONE',  ( 1.000000000000000000, 0.000000000000000000, 0.000000000000000000 ) ) ;
#259 = DIRECTION ( 'NONE',  ( -0.000000000000000000, -0.000000000000000000, -1.000000000000000000 ) ) ;
#260 = EDGE_CURVE ( 'NONE', #516, #370, #616, .T. ) ;
#261 = ORIENTED_EDGE ( 'NONE', *, *, #612, .T. ) ;
#262 = ORIENTED_EDGE ( 'NONE', *, *, #622, .F. ) ;
#263 = DIRECTION ( 'NONE',  ( 1.000000000000000000, 0.000000000000000000, -0.000000000000000000 ) ) ;
#264 = ADVANCED_FACE ( 'NONE', ( #372 ), #314, .F. ) ;
#265 = ORIENTED_EDGE ( 'NONE', *, *, #509, .T. ) ;
#266 = CARTESIAN_POINT ( 'NONE',  ( -0.7650000000000000133, 1.011836509645767546, 0.2650000000000000133 ) ) ;
#267 = ORIENTED_EDGE ( 'NONE', *, *, #523, .F. ) ;
#268 = DIRECTION ( 'NONE',  ( 0.000000000000000000, -0.000000000000000000, 1.000000000000000000 ) ) ;
#269 = ORIENTED_EDGE ( 'NONE', *, *, #181, .F. ) ;
#270 = FACE_OUTER_BOUND ( 'NONE', #56, .T. ) ;
#271 = ADVANCED_FACE ( 'NONE', ( #675 ), #436, .T. ) ;
#272 = DIRECTION ( 'NONE',  ( 0.000000000000000000, 0.000000000000000000, 1.000000000000000000 ) ) ;
#273 = VECTOR ( 'NONE', #55, 1.000000000000000000 ) ;
#274 = EDGE_CURVE ( 'NONE', #618, #103, #483, .T. ) ;
#275 = LINE ( 'NONE', #72, #505 ) ;
#276 = DIRECTION ( 'NONE',  ( -0.000000000000000000, -0.000000000000000000, 1.000000000000000000 ) ) ;
#277 = DIRECTION ( 'NONE',  ( -1.000000000000000000, 0.000000000000000000, 0.000000000000000000 ) ) ;
#278 = ADVANCED_FACE ( 'NONE', ( #159 ), #326, .T. ) ;
#279 = LINE ( 'NONE', #231, #590 ) ;
#280 = CARTESIAN_POINT ( 'NONE',  ( 0.7650000000000000133, 2.200000000000000178, -0.2650000000000000133 ) ) ;
#281 = EDGE_CURVE ( 'NONE', #422, #520, #330, .T. ) ;
#282 = LINE ( 'NONE', #493, #306 ) ;
#283 = PRODUCT_DEFINITION_FORMATION_WITH_SPECIFIED_SOURCE ( 'ANY', '', #548, .NOT_KNOWN. ) ;
#284 = CIRCLE ( 'NONE', #130, 0.2500000000000001665 ) ;
#285 = LINE ( 'NONE', #280, #90 ) ;
#286 = CYLINDRICAL_SURFACE ( 'NONE', #158, 0.2500000000000001665 ) ;
#287 = CARTESIAN_POINT ( 'NONE',  ( -0.7650000000000000133, 2.200000000000000178, -0.7650000000000000133 ) ) ;
#288 = FACE_OUTER_BOUND ( 'NONE', #162, .T. ) ;
#289 = LINE ( 'NONE', #512, #336 ) ;
#290 = ORIENTED_EDGE ( 'NONE', *, *, #387, .T. ) ;
#291 =( NAMED_UNIT ( * ) PLANE_ANGLE_UNIT ( ) SI_UNIT ( $, .RADIAN. ) );
#292 = PLANE ( 'NONE',  #172 ) ;
#293 = VECTOR ( 'NONE', #11, 1.000000000000000000 ) ;
#294 = ORIENTED_EDGE ( 'NONE', *, *, #73, .F. ) ;
#295 = DIRECTION ( 'NONE',  ( -0.000000000000000000, -0.000000000000000000, -1.000000000000000000 ) ) ;
#296 = CARTESIAN_POINT ( 'NONE',  ( 0.2649999999999998468, 0.000000000000000000, 0.7650000000000000133 ) ) ;
#297 = ADVANCED_FACE ( 'NONE', ( #270 ), #2, .T. ) ;
#298 = EDGE_LOOP ( 'NONE', ( #677, #510, #635, #308 ) ) ;
#299 = ORIENTED_EDGE ( 'NONE', *, *, #37, .F. ) ;
#300 = CARTESIAN_POINT ( 'NONE',  ( -0.7650000000000000133, 2.200000000000000178, 0.7650000000000000133 ) ) ;
#301 = DIRECTION ( 'NONE',  ( 0.000000000000000000, 0.000000000000000000, 1.000000000000000000 ) ) ;
#302 = EDGE_LOOP ( 'NONE', ( #313, #365, #468, #267 ) ) ;
#303 = ORIENTED_EDGE ( 'NONE', *, *, #150, .T. ) ;
#304 =( LENGTH_UNIT ( ) NAMED_UNIT ( * ) SI_UNIT ( $, .METRE. ) );
#305 = DIRECTION ( 'NONE',  ( -1.000000000000000000, 0.000000000000000000, 0.000000000000000000 ) ) ;
#306 = VECTOR ( 'NONE', #606, 1.000000000000000000 ) ;
#307 = AXIS2_PLACEMENT_3D ( 'NONE', #588, #272, #641 ) ;
#308 = ORIENTED_EDGE ( 'NONE', *, *, #387, .F. ) ;
#309 = ORIENTED_EDGE ( 'NONE', *, *, #612, .F. ) ;
#310 = FACE_OUTER_BOUND ( 'NONE', #356, .T. ) ;
#311 = LINE ( 'NONE', #168, #273 ) ;
#312 = EDGE_LOOP ( 'NONE', ( #481, #107, #113, #418 ) ) ;
#313 = ORIENTED_EDGE ( 'NONE', *, *, #104, .F. ) ;
#314 = PLANE ( 'NONE',  #99 ) ;
#315 = ORIENTED_EDGE ( 'NONE', *, *, #391, .F. ) ;
#316 = PRODUCT_DEFINITION_CONTEXT ( 'detailed design', #141, 'design' ) ;
#317 = DIRECTION ( 'NONE',  ( 0.000000000000000000, 0.000000000000000000, 1.000000000000000000 ) ) ;
#318 = PRODUCT_DEFINITION ( 'UNKNOWN', '', #283, #316 ) ;
#319 = ADVANCED_FACE ( 'NONE', ( #419 ), #518, .T. ) ;
#320 = ORIENTED_EDGE ( 'NONE', *, *, #355, .T. ) ;
#321 = PRESENTATION_LAYER_ASSIGNMENT (  '', '', ( #27 ) ) ;
#322 = CARTESIAN_POINT ( 'NONE',  ( 0.5150000000000000133, 0.000000000000000000, 1.472106781186548030 ) ) ;
#323 = ORIENTED_EDGE ( 'NONE', *, *, #78, .T. ) ;
#324 = EDGE_CURVE ( 'NONE', #422, #83, #111, .T. ) ;
#325 = DIRECTION ( 'NONE',  ( 0.000000000000000000, 0.000000000000000000, 1.000000000000000000 ) ) ;
#326 = PLANE ( 'NONE',  #398 ) ;
#327 = ORIENTED_EDGE ( 'NONE', *, *, #281, .F. ) ;
#328 = CARTESIAN_POINT ( 'NONE',  ( -1.234999999999999876, 0.000000000000000000, -0.2650000000000000133 ) ) ;
#329 = LINE ( 'NONE', #594, #651 ) ;
#330 = CIRCLE ( 'NONE', #485, 0.2499999999999999445 ) ;
#331 = EDGE_CURVE ( 'NONE', #392, #621, #379, .T. ) ;
#332 = DIRECTION ( 'NONE',  ( 0.000000000000000000, -1.000000000000000000, 0.000000000000000000 ) ) ;
#333 = DIRECTION ( 'NONE',  ( -0.000000000000000000, -0.000000000000000000, -1.000000000000000000 ) ) ;
#334 = VECTOR ( 'NONE', #462, 1.000000000000000000 ) ;
#335 = LINE ( 'NONE', #126, #424 ) ;
#336 = VECTOR ( 'NONE', #205, 1.000000000000000000 ) ;
#337 = LINE ( 'NONE', #382, #451 ) ;
#338 = PLANE ( 'NONE',  #216 ) ;
#339 = PRODUCT_RELATED_PRODUCT_CATEGORY ( 'part', '', ( #548 ) ) ;
#340 = DIRECTION ( 'NONE',  ( -0.000000000000000000, -0.000000000000000000, -1.000000000000000000 ) ) ;
#341 = VECTOR ( 'NONE', #425, 1.000000000000000000 ) ;
#342 = CARTESIAN_POINT ( 'NONE',  ( -0.5150000000000000133, 0.000000000000000000, 0.2650000000000000133 ) ) ;
#343 = DIRECTION ( 'NONE',  ( 0.000000000000000000, 1.000000000000000000, 0.000000000000000000 ) ) ;
#344 = DIRECTION ( 'NONE',  ( -0.000000000000000000, -0.000000000000000000, 1.000000000000000000 ) ) ;
#345 = FACE_OUTER_BOUND ( 'NONE', #632, .T. ) ;
#346 = DIRECTION ( 'NONE',  ( 1.000000000000000000, 0.000000000000000000, 0.000000000000000000 ) ) ;
#347 = EDGE_LOOP ( 'NONE', ( #93, #467, #532, #38 ) ) ;
#348 = FACE_OUTER_BOUND ( 'NONE', #298, .T. ) ;
#349 = DIRECTION ( 'NONE',  ( -1.000000000000000000, 0.000000000000000000, -0.000000000000000000 ) ) ;
#350 = MECHANICAL_DESIGN_GEOMETRIC_PRESENTATION_REPRESENTATION (  '', ( #27 ), #474 ) ;
#351 = ORIENTED_EDGE ( 'NONE', *, *, #368, .T. ) ;
#352 = CIRCLE ( 'NONE', #235, 0.2499999999999998890 ) ;
#353 = CARTESIAN_POINT ( 'NONE',  ( 0.000000000000000000, 0.000000000000000000, 0.2650000000000000133 ) ) ;
#354 = DIRECTION ( 'NONE',  ( -1.000000000000000000, 0.000000000000000000, 0.000000000000000000 ) ) ;
#355 = EDGE_CURVE ( 'NONE', #248, #618, #284, .T. ) ;
#356 = EDGE_LOOP ( 'NONE', ( #327, #203 ) ) ;
#357 = ORIENTED_EDGE ( 'NONE', *, *, #33, .T. ) ;
#358 = CARTESIAN_POINT ( 'NONE',  ( -0.7650000000000000133, 2.200000000000000178, -0.7650000000000000133 ) ) ;
#359 = CARTESIAN_POINT ( 'NONE',  ( 0.7650000000000000133, 2.200000000000000178, -0.7650000000000000133 ) ) ;
#360 = EDGE_LOOP ( 'NONE', ( #256, #152 ) ) ;
#361 = EDGE_CURVE ( 'NONE', #561, #527, #311, .T. ) ;
#362 = CARTESIAN_POINT ( 'NONE',  ( -0.7650000000000000133, 2.200000000000000178, 0.7650000000000000133 ) ) ;
#363 = DIRECTION ( 'NONE',  ( -0.000000000000000000, -0.000000000000000000, -1.000000000000000000 ) ) ;
#364 = CIRCLE ( 'NONE', #435, 0.2500000000000001110 ) ;
#365 = ORIENTED_EDGE ( 'NONE', *, *, #33, .F. ) ;
#366 = ORIENTED_EDGE ( 'NONE', *, *, #37, .T. ) ;
#367 = CARTESIAN_POINT ( 'NONE',  ( 0.000000000000000000, 0.000000000000000000, 0.000000000000000000 ) ) ;
#368 = EDGE_CURVE ( 'NONE', #103, #410, #64, .T. ) ;
#369 = CARTESIAN_POINT ( 'NONE',  ( 0.7650000000000001243, 3.061616997868384867E-17, 1.472106781186548030 ) ) ;
#370 = VERTEX_POINT ( 'NONE', #577 ) ;
#371 = ORIENTED_EDGE ( 'NONE', *, *, #324, .F. ) ;
#372 = FACE_OUTER_BOUND ( 'NONE', #521, .T. ) ;
#373 = ORIENTED_EDGE ( 'NONE', *, *, #150, .F. ) ;
#374 = FACE_OUTER_BOUND ( 'NONE', #665, .T. ) ;
#375 = UNCERTAINTY_MEASURE_WITH_UNIT (LENGTH_MEASURE( 1.000000000000000082E-05 ), #431, 'distance_accuracy_value', 'NONE');
#376 = CARTESIAN_POINT ( 'NONE',  ( -0.2650000000000000688, 0.000000000000000000, -1.472106781186547586 ) ) ;
#377 = VECTOR ( 'NONE', #546, 1.000000000000000000 ) ;
#378 = VECTOR ( 'NONE', #96, 1.000000000000000000 ) ;
#379 = LINE ( 'NONE', #114, #567 ) ;
#380 = EDGE_CURVE ( 'NONE', #561, #527, #77, .T. ) ;
#381 = EDGE_LOOP ( 'NONE', ( #656, #210, #464, #371 ) ) ;
#382 = CARTESIAN_POINT ( 'NONE',  ( 0.7650000000000000133, 2.200000000000000178, -0.7650000000000000133 ) ) ;
#383 = CARTESIAN_POINT ( 'NONE',  ( -0.7650000000000000133, 0.8715236489236135586, -0.5307537760721020570 ) ) ;
#384 = DIRECTION ( 'NONE',  ( 0.000000000000000000, -1.000000000000000000, 0.000000000000000000 ) ) ;
#385 = VECTOR ( 'NONE', #511, 1.000000000000000000 ) ;
#386 = LINE ( 'NONE', #328, #420 ) ;
#387 = EDGE_CURVE ( 'NONE', #53, #410, #469, .T. ) ;
#388 = DIRECTION ( 'NONE',  ( 0.000000000000000000, 0.000000000000000000, -1.000000000000000000 ) ) ;
#389 = AXIS2_PLACEMENT_3D ( 'NONE', #238, #602, #497 ) ;
#390 = LINE ( 'NONE', #533, #201 ) ;
#391 = EDGE_CURVE ( 'NONE', #414, #213, #678, .T. ) ;
#392 = VERTEX_POINT ( 'NONE', #628 ) ;
#393 = ADVANCED_FACE ( 'NONE', ( #163 ), #529, .F. ) ;
#394 = DIRECTION ( 'NONE',  ( -0.000000000000000000, -0.000000000000000000, -1.000000000000000000 ) ) ;
#395 = DIRECTION ( 'NONE',  ( -1.000000000000000000, 0.000000000000000000, 0.000000000000000000 ) ) ;
#396 = CARTESIAN_POINT ( 'NONE',  ( 0.7650000000000000133, 2.200000000000000178, 0.7650000000000000133 ) ) ;
#397 = AXIS2_PLACEMENT_3D ( 'NONE', #353, #551, #34 ) ;
#398 = AXIS2_PLACEMENT_3D ( 'NONE', #575, #571, #268 ) ;
#399 = LINE ( 'NONE', #490, #639 ) ;
#400 = FACE_OUTER_BOUND ( 'NONE', #347, .T. ) ;
#401 = DIRECTION ( 'NONE',  ( -1.000000000000000000, 0.000000000000000000, 0.000000000000000000 ) ) ;
#402 = ORIENTED_EDGE ( 'NONE', *, *, #185, .F. ) ;
#403 = LINE ( 'NONE', #396, #86 ) ;
#404 = DIRECTION ( 'NONE',  ( -1.000000000000000000, 0.000000000000000000, 0.000000000000000000 ) ) ;
#405 = VERTEX_POINT ( 'NONE', #266 ) ;
#406 = DIRECTION ( 'NONE',  ( -0.000000000000000000, -1.000000000000000000, -0.000000000000000000 ) ) ;
#407 = ADVANCED_FACE ( 'NONE', ( #584 ), #587, .F. ) ;
#408 = DIRECTION ( 'NONE',  ( -0.000000000000000000, 0.000000000000000000, -1.000000000000000000 ) ) ;
#409 = ORIENTED_EDGE ( 'NONE', *, *, #85, .F. ) ;
#410 = VERTEX_POINT ( 'NONE', #74 ) ;
#411 = CYLINDRICAL_SURFACE ( 'NONE', #643, 0.2499999999999998890 ) ;
#412 = CARTESIAN_POINT ( 'NONE',  ( -0.5150000000000000133, 0.000000000000000000, -1.472106781186547586 ) ) ;
#413 = ORIENTED_EDGE ( 'NONE', *, *, #534, .F. ) ;
#414 = VERTEX_POINT ( 'NONE', #118 ) ;
#415 = FACE_OUTER_BOUND ( 'NONE', #62, .T. ) ;
#416 = ADVANCED_FACE ( 'NONE', ( #440 ), #286, .T. ) ;
#417 = EDGE_LOOP ( 'NONE', ( #257, #558 ) ) ;
#418 = ORIENTED_EDGE ( 'NONE', *, *, #599, .F. ) ;
#419 = FACE_OUTER_BOUND ( 'NONE', #525, .T. ) ;
#420 = VECTOR ( 'NONE', #647, 1.000000000000000000 ) ;
#421 = EDGE_CURVE ( 'NONE', #103, #603, #364, .T. ) ;
#422 = VERTEX_POINT ( 'NONE', #233 ) ;
#423 = ORIENTED_EDGE ( 'NONE', *, *, #355, .F. ) ;
#424 = VECTOR ( 'NONE', #589, 1.000000000000000000 ) ;
#425 = DIRECTION ( 'NONE',  ( -1.000000000000000000, -0.000000000000000000, -0.000000000000000000 ) ) ;
#426 = ORIENTED_EDGE ( 'NONE', *, *, #13, .F. ) ;
#427 = PRODUCT_CONTEXT ( 'NONE', #188, 'mechanical' ) ;
#428 = CARTESIAN_POINT ( 'NONE',  ( 0.7649999999999999023, 0.000000000000000000, -1.472106781186547586 ) ) ;
#429 = EDGE_CURVE ( 'NONE', #652, #561, #390, .T. ) ;
#430 = VERTEX_POINT ( 'NONE', #644 ) ;
#431 =( LENGTH_UNIT ( ) NAMED_UNIT ( * ) SI_UNIT ( $, .METRE. ) );
#432 = DIRECTION ( 'NONE',  ( 1.000000000000000000, 0.000000000000000000, 0.000000000000000000 ) ) ;
#433 = AXIS2_PLACEMENT_3D ( 'NONE', #153, #325, #222 ) ;
#434 = ORIENTED_EDGE ( 'NONE', *, *, #542, .F. ) ;
#435 = AXIS2_PLACEMENT_3D ( 'NONE', #65, #236, #180 ) ;
#436 = CYLINDRICAL_SURFACE ( 'NONE', #227, 0.2500000000000001110 ) ;
#437 = EDGE_CURVE ( 'NONE', #53, #147, #600, .T. ) ;
#438 = CARTESIAN_POINT ( 'NONE',  ( 0.2649999999999998468, 0.000000000000000000, 1.472106781186548030 ) ) ;
#439 = CARTESIAN_POINT ( 'NONE',  ( 0.7649999999999999023, 0.000000000000000000, -0.7650000000000000133 ) ) ;
#440 = FACE_OUTER_BOUND ( 'NONE', #209, .T. ) ;
#441 = CARTESIAN_POINT ( 'NONE',  ( -0.5150000000000000133, 0.000000000000000000, 0.7650000000000000133 ) ) ;
#442 = LINE ( 'NONE', #79, #545 ) ;
#443 = LINE ( 'NONE', #234, #680 ) ;
#444 = DIRECTION ( 'NONE',  ( -1.000000000000000000, 0.000000000000000000, -0.000000000000000000 ) ) ;
#445 = DIRECTION ( 'NONE',  ( 0.000000000000000000, 0.9848077530122081313, 0.1736481776669303867 ) ) ;
#446 = VECTOR ( 'NONE', #332, 1.000000000000000000 ) ;
#447 = CARTESIAN_POINT ( 'NONE',  ( -0.7650000000000001243, 0.000000000000000000, 0.2650000000000000133 ) ) ;
#448 = DIRECTION ( 'NONE',  ( 1.000000000000000000, 0.000000000000000000, 0.000000000000000000 ) ) ;
#449 = ORIENTED_EDGE ( 'NONE', *, *, #185, .T. ) ;
#450 = SURFACE_SIDE_STYLE ('',( #30 ) ) ;
#451 = VECTOR ( 'NONE', #394, 1.000000000000000000 ) ;
#452 = AXIS2_PLACEMENT_3D ( 'NONE', #322, #363, #215 ) ;
#453 = DIRECTION ( 'NONE',  ( 0.000000000000000000, 0.000000000000000000, -1.000000000000000000 ) ) ;
#454 = EDGE_CURVE ( 'NONE', #520, #225, #329, .T. ) ;
#455 = LINE ( 'NONE', #88, #119 ) ;
#456 = DIRECTION ( 'NONE',  ( 1.000000000000000000, -0.000000000000000000, -0.000000000000000000 ) ) ;
#457 = ORIENTED_EDGE ( 'NONE', *, *, #470, .F. ) ;
#458 = CYLINDRICAL_SURFACE ( 'NONE', #6, 0.2500000000000001110 ) ;
#459 = DIRECTION ( 'NONE',  ( -0.000000000000000000, -0.000000000000000000, 1.000000000000000000 ) ) ;
#460 = ORIENTED_EDGE ( 'NONE', *, *, #136, .T. ) ;
#461 = EDGE_CURVE ( 'NONE', #410, #605, #536, .T. ) ;
#462 = DIRECTION ( 'NONE',  ( -1.000000000000000000, -0.000000000000000000, -0.000000000000000000 ) ) ;
#463 = VECTOR ( 'NONE', #101, 1.000000000000000000 ) ;
#464 = ORIENTED_EDGE ( 'NONE', *, *, #3, .T. ) ;
#465 = DIRECTION ( 'NONE',  ( 0.000000000000000000, 0.000000000000000000, 1.000000000000000000 ) ) ;
#466 = EDGE_CURVE ( 'NONE', #609, #370, #442, .T. ) ;
#467 = ORIENTED_EDGE ( 'NONE', *, *, #534, .T. ) ;
#468 = ORIENTED_EDGE ( 'NONE', *, *, #391, .T. ) ;
#469 = LINE ( 'NONE', #428, #634 ) ;
#470 = EDGE_CURVE ( 'NONE', #83, #605, #386, .T. ) ;
#471 = ORIENTED_EDGE ( 'NONE', *, *, #174, .T. ) ;
#472 = EDGE_LOOP ( 'NONE', ( #413, #323, #202, #471 ) ) ;
#473 = DIRECTION ( 'NONE',  ( -0.000000000000000000, -0.000000000000000000, -1.000000000000000000 ) ) ;
#474 =( GEOMETRIC_REPRESENTATION_CONTEXT ( 3 ) GLOBAL_UNCERTAINTY_ASSIGNED_CONTEXT ( ( #582 ) ) GLOBAL_UNIT_ASSIGNED_CONTEXT ( ( #304, #291, #254 ) ) REPRESENTATION_CONTEXT ( 'NONE', 'WORKASPACE' ) );
#475 = EDGE_LOOP ( 'NONE', ( #614, #409, #663, #39, #434, #670, #625, #102 ) ) ;
#476 = DIRECTION ( 'NONE',  ( 0.000000000000000000, 0.000000000000000000, 1.000000000000000000 ) ) ;
#477 = CIRCLE ( 'NONE', #557, 0.2500000000000001110 ) ;
#478 = DIRECTION ( 'NONE',  ( -0.000000000000000000, -0.000000000000000000, -1.000000000000000000 ) ) ;
#479 = ORIENTED_EDGE ( 'NONE', *, *, #181, .T. ) ;
#480 = CARTESIAN_POINT ( 'NONE',  ( 0.5150000000000000133, 0.000000000000000000, 0.2650000000000000133 ) ) ;
#481 = ORIENTED_EDGE ( 'NONE', *, *, #622, .T. ) ;
#482 = ADVANCED_FACE ( 'NONE', ( #591 ), #229, .F. ) ;
#483 = LINE ( 'NONE', #369, #251 ) ;
#484 = EDGE_CURVE ( 'NONE', #248, #603, #183, .T. ) ;
#485 = AXIS2_PLACEMENT_3D ( 'NONE', #5, #226, #683 ) ;
#486 = DIRECTION ( 'NONE',  ( -0.000000000000000000, 0.000000000000000000, -1.000000000000000000 ) ) ;
#487 = DIRECTION ( 'NONE',  ( 0.000000000000000000, 0.000000000000000000, 1.000000000000000000 ) ) ;
#488 = EDGE_CURVE ( 'NONE', #621, #516, #337, .T. ) ;
#489 = LINE ( 'NONE', #537, #377 ) ;
#490 = CARTESIAN_POINT ( 'NONE',  ( 0.000000000000000000, 1.011836509645767546, 0.2650000000000000133 ) ) ;
#491 = DIRECTION ( 'NONE',  ( -0.000000000000000000, -0.000000000000000000, -1.000000000000000000 ) ) ;
#492 = PLANE ( 'NONE',  #619 ) ;
#493 = CARTESIAN_POINT ( 'NONE',  ( -0.7650000000000000133, 2.200000000000000178, -0.7650000000000000133 ) ) ;
#494 = LINE ( 'NONE', #232, #446 ) ;
#495 = CARTESIAN_POINT ( 'NONE',  ( 0.5150000000000000133, 0.000000000000000000, 1.472106781186548030 ) ) ;
#496 = ADVANCED_FACE ( 'NONE', ( #596 ), #543, .T. ) ;
#497 = DIRECTION ( 'NONE',  ( -1.000000000000000000, 0.000000000000000000, 0.000000000000000000 ) ) ;
#498 = CIRCLE ( 'NONE', #36, 0.2499999999999999445 ) ;
#499 = LINE ( 'NONE', #358, #385 ) ;
#500 = CARTESIAN_POINT ( 'NONE',  ( 0.5150000000000000133, 0.000000000000000000, -1.472106781186547586 ) ) ;
#501 = AXIS2_PLACEMENT_3D ( 'NONE', #46, #453, #404 ) ;
#502 = DIRECTION ( 'NONE',  ( 1.000000000000000000, -0.000000000000000000, -0.000000000000000000 ) ) ;
#503 = AXIS2_PLACEMENT_3D ( 'NONE', #637, #237, #540 ) ;
#504 = FACE_OUTER_BOUND ( 'NONE', #245, .T. ) ;
#505 = VECTOR ( 'NONE', #638, 1.000000000000000000 ) ;
#506 = CARTESIAN_POINT ( 'NONE',  ( 0.2649999999999998468, 0.000000000000000000, 0.2650000000000000133 ) ) ;
#507 = DIRECTION ( 'NONE',  ( 0.000000000000000000, 0.000000000000000000, -1.000000000000000000 ) ) ;
#508 = ORIENTED_EDGE ( 'NONE', *, *, #260, .T. ) ;
#509 = EDGE_CURVE ( 'NONE', #603, #103, #489, .T. ) ;
#510 = ORIENTED_EDGE ( 'NONE', *, *, #193, .T. ) ;
#511 = DIRECTION ( 'NONE',  ( -0.000000000000000000, -1.000000000000000000, -0.000000000000000000 ) ) ;
#512 = CARTESIAN_POINT ( 'NONE',  ( 0.7650000000000000133, 2.200000000000000178, 0.2650000000000000133 ) ) ;
#513 = ORIENTED_EDGE ( 'NONE', *, *, #484, .F. ) ;
#514 = PLANE ( 'NONE',  #679 ) ;
#515 = CARTESIAN_POINT ( 'NONE',  ( -0.7650000000000000133, 2.200000000000000178, 0.7650000000000000133 ) ) ;
#516 = VERTEX_POINT ( 'NONE', #177 ) ;
#517 = DIRECTION ( 'NONE',  ( 0.000000000000000000, 0.000000000000000000, -1.000000000000000000 ) ) ;
#518 = CYLINDRICAL_SURFACE ( 'NONE', #452, 0.2500000000000001665 ) ;
#519 = AXIS2_PLACEMENT_3D ( 'NONE', #342, #244, #401 ) ;
#520 = VERTEX_POINT ( 'NONE', #175 ) ;
#521 = EDGE_LOOP ( 'NONE', ( #508, #262, #626, #269 ) ) ;
#522 = CARTESIAN_POINT ( 'NONE',  ( 0.7650000000000000133, 0.000000000000000000, -0.7650000000000000133 ) ) ;
#523 = EDGE_CURVE ( 'NONE', #405, #213, #636, .T. ) ;
#524 = ORIENTED_EDGE ( 'NONE', *, *, #509, .F. ) ;
#525 = EDGE_LOOP ( 'NONE', ( #106, #449, #568, #194 ) ) ;
#526 = DIRECTION ( 'NONE',  ( 0.000000000000000000, 0.000000000000000000, 1.000000000000000000 ) ) ;
#527 = VERTEX_POINT ( 'NONE', #71 ) ;
#528 = DIRECTION ( 'NONE',  ( -1.000000000000000000, 0.000000000000000000, -0.000000000000000000 ) ) ;
#529 = PLANE ( 'NONE',  #45 ) ;
#530 = AXIS2_PLACEMENT_3D ( 'NONE', #500, #149, #82 ) ;
#531 = DIRECTION ( 'NONE',  ( -1.000000000000000000, 0.000000000000000000, 0.000000000000000000 ) ) ;
#532 = ORIENTED_EDGE ( 'NONE', *, *, #380, .F. ) ;
#533 = CARTESIAN_POINT ( 'NONE',  ( -0.7650000000000001243, 0.000000000000000000, 1.472106781186548030 ) ) ;
#534 = EDGE_CURVE ( 'NONE', #161, #527, #279, .T. ) ;
#535 = DIRECTION ( 'NONE',  ( 1.000000000000000000, 0.000000000000000000, 0.000000000000000000 ) ) ;
#536 = CIRCLE ( 'NONE', #28, 0.2499999999999998890 ) ;
#537 = CARTESIAN_POINT ( 'NONE',  ( -1.234999999999999876, 0.000000000000000000, 0.2650000000000000133 ) ) ;
#538 = AXIS2_PLACEMENT_3D ( 'NONE', #547, #123, #448 ) ;
#539 = CARTESIAN_POINT ( 'NONE',  ( 0.8685960721893453140, 1.100000000000000089, -0.7650000000000000133 ) ) ;
#540 = DIRECTION ( 'NONE',  ( 1.000000000000000000, 0.000000000000000000, 0.000000000000000000 ) ) ;
#541 = DIRECTION ( 'NONE',  ( 0.000000000000000000, 1.000000000000000000, 0.000000000000000000 ) ) ;
#542 = EDGE_CURVE ( 'NONE', #4, #392, #282, .T. ) ;
#543 = CYLINDRICAL_SURFACE ( 'NONE', #503, 0.2499999999999999445 ) ;
#544 = CARTESIAN_POINT ( 'NONE',  ( -1.234999999999999876, 0.000000000000000000, -0.2650000000000000133 ) ) ;
#545 = VECTOR ( 'NONE', #171, 0.9999999999999998890 ) ;
#546 = DIRECTION ( 'NONE',  ( 1.000000000000000000, -0.000000000000000000, -0.000000000000000000 ) ) ;
#547 = CARTESIAN_POINT ( 'NONE',  ( 0.5150000000000000133, 0.000000000000000000, 0.2650000000000000133 ) ) ;
#548 = PRODUCT ( 'Viper Rover', 'Viper Rover', '', ( #427 ) ) ;
#549 = CARTESIAN_POINT ( 'NONE',  ( 0.7650000000000000133, 1.011836509645767546, -0.2650000000000000133 ) ) ;
#550 = DIRECTION ( 'NONE',  ( 0.000000000000000000, 0.000000000000000000, -1.000000000000000000 ) ) ;
#551 = DIRECTION ( 'NONE',  ( -0.000000000000000000, 0.000000000000000000, 1.000000000000000000 ) ) ;
#552 = DIRECTION ( 'NONE',  ( 1.000000000000000000, 0.000000000000000000, 0.000000000000000000 ) ) ;
#553 = ADVANCED_BREP_SHAPE_REPRESENTATION ( 'Viper Rover', ( #655, #664 ), #578 ) ;
#554 = ORIENTED_EDGE ( 'NONE', *, *, #361, .F. ) ;
#555 = DIRECTION ( 'NONE',  ( -0.000000000000000000, -0.000000000000000000, 1.000000000000000000 ) ) ;
#556 = DIRECTION ( 'NONE',  ( 0.000000000000000000, 0.000000000000000000, -1.000000000000000000 ) ) ;
#557 = AXIS2_PLACEMENT_3D ( 'NONE', #120, #69, #277 ) ;
#558 = ORIENTED_EDGE ( 'NONE', *, *, #10, .F. ) ;
#559 = CARTESIAN_POINT ( 'NONE',  ( 0.5150000000000000133, 0.000000000000000000, -0.2650000000000000133 ) ) ;
#560 = DIRECTION ( 'NONE',  ( 0.000000000000000000, 0.000000000000000000, -1.000000000000000000 ) ) ;
#561 = VERTEX_POINT ( 'NONE', #447 ) ;
#562 = FACE_OUTER_BOUND ( 'NONE', #569, .T. ) ;
#563 = CARTESIAN_POINT ( 'NONE',  ( -0.7650000000000000133, 1.011836509645767546, -0.2650000000000000133 ) ) ;
#564 = ORIENTED_EDGE ( 'NONE', *, *, #73, .T. ) ;
#565 = EDGE_LOOP ( 'NONE', ( #54, #265 ) ) ;
#566 = CARTESIAN_POINT ( 'NONE',  ( -0.7650000000000000133, 2.200000000000000178, -0.7650000000000000133 ) ) ;
#567 = VECTOR ( 'NONE', #211, 1.000000000000000000 ) ;
#568 = ORIENTED_EDGE ( 'NONE', *, *, #484, .T. ) ;
#569 = EDGE_LOOP ( 'NONE', ( #207, #166, #221, #217, #115, #214 ) ) ;
#570 = APPLICATION_PROTOCOL_DEFINITION ( 'draft international standard', 'automotive_design', 1998, #141 ) ;
#571 = DIRECTION ( 'NONE',  ( 0.000000000000000000, 1.000000000000000000, 0.000000000000000000 ) ) ;
#572 = EDGE_CURVE ( 'NONE', #392, #213, #455, .T. ) ;
#573 = ORIENTED_EDGE ( 'NONE', *, *, #461, .F. ) ;
#574 =( NAMED_UNIT ( * ) SI_UNIT ( $, .STERADIAN. ) SOLID_ANGLE_UNIT ( ) );
#575 = CARTESIAN_POINT ( 'NONE',  ( 0.000000000000000000, 2.200000000000000178, 0.000000000000000000 ) ) ;
#576 = ORIENTED_EDGE ( 'NONE', *, *, #461, .T. ) ;
#577 = CARTESIAN_POINT ( 'NONE',  ( 0.7650000000000000133, 1.100000000000000089, -0.7650000000000000133 ) ) ;
#578 =( GEOMETRIC_REPRESENTATION_CONTEXT ( 3 ) GLOBAL_UNCERTAINTY_ASSIGNED_CONTEXT ( ( #375 ) ) GLOBAL_UNIT_ASSIGNED_CONTEXT ( ( #431, #218, #574 ) ) REPRESENTATION_CONTEXT ( 'NONE', 'WORKASPACE' ) );
#579 = VECTOR ( 'NONE', #333, 1.000000000000000000 ) ;
#580 = ADVANCED_FACE ( 'NONE', ( #400 ), #458, .T. ) ;
#581 = ORIENTED_EDGE ( 'NONE', *, *, #421, .T. ) ;
#582 = UNCERTAINTY_MEASURE_WITH_UNIT (LENGTH_MEASURE( 1.000000000000000082E-05 ), #304, 'distance_accuracy_value', 'NONE');
#583 = VECTOR ( 'NONE', #21, 1.000000000000000000 ) ;
#584 = FACE_OUTER_BOUND ( 'NONE', #302, .T. ) ;
#585 = ORIENTED_EDGE ( 'NONE', *, *, #488, .F. ) ;
#586 = EDGE_CURVE ( 'NONE', #225, #253, #148, .T. ) ;
#587 = PLANE ( 'NONE',  #241 ) ;
#588 = CARTESIAN_POINT ( 'NONE',  ( 0.5150000000000000133, 0.000000000000000000, -0.7650000000000000133 ) ) ;
#589 = DIRECTION ( 'NONE',  ( 0.000000000000000000, 0.000000000000000000, 1.000000000000000000 ) ) ;
#590 = VECTOR ( 'NONE', #14, 1.000000000000000000 ) ;
#591 = FACE_OUTER_BOUND ( 'NONE', #671, .T. ) ;
#592 = CIRCLE ( 'NONE', #389, 0.2499999999999999445 ) ;
#593 = DIRECTION ( 'NONE',  ( 1.000000000000000000, -0.000000000000000000, -0.000000000000000000 ) ) ;
#594 = CARTESIAN_POINT ( 'NONE',  ( -0.7649999999999999023, 3.061616997868382402E-17, -1.472106781186547586 ) ) ;
#595 = LINE ( 'NONE', #544, #160 ) ;
#596 = FACE_OUTER_BOUND ( 'NONE', #381, .T. ) ;
#597 = DIRECTION ( 'NONE',  ( 0.000000000000000000, 0.000000000000000000, 1.000000000000000000 ) ) ;
#598 = VECTOR ( 'NONE', #195, 0.9999999999999998890 ) ;
#599 = EDGE_CURVE ( 'NONE', #43, #253, #131, .T. ) ;
#600 = CIRCLE ( 'NONE', #307, 0.2499999999999998890 ) ;
#601 = DIRECTION ( 'NONE',  ( 1.000000000000000000, 0.000000000000000000, 0.000000000000000000 ) ) ;
#602 = DIRECTION ( 'NONE',  ( 0.000000000000000000, -0.000000000000000000, 1.000000000000000000 ) ) ;
#603 = VERTEX_POINT ( 'NONE', #506 ) ;
#604 = DIRECTION ( 'NONE',  ( 1.000000000000000000, 0.000000000000000000, -0.000000000000000000 ) ) ;
#605 = VERTEX_POINT ( 'NONE', #243 ) ;
#606 = DIRECTION ( 'NONE',  ( 0.000000000000000000, 0.000000000000000000, 1.000000000000000000 ) ) ;
#607 = ADVANCED_FACE ( 'NONE', ( #345 ), #95, .T. ) ;
#608 = CARTESIAN_POINT ( 'NONE',  ( 0.2650000000000000688, 3.061616997868382402E-17, -1.472106781186547586 ) ) ;
#609 = VERTEX_POINT ( 'NONE', #549 ) ;
#610 = DIRECTION ( 'NONE',  ( -1.000000000000000000, 0.000000000000000000, 0.000000000000000000 ) ) ;
#611 = FACE_OUTER_BOUND ( 'NONE', #673, .T. ) ;
#612 = EDGE_CURVE ( 'NONE', #621, #414, #403, .T. ) ;
#613 = AXIS2_PLACEMENT_3D ( 'NONE', #132, #395, #597 ) ;
#614 = ORIENTED_EDGE ( 'NONE', *, *, #13, .T. ) ;
#615 = DIRECTION ( 'NONE',  ( 1.000000000000000000, 0.000000000000000000, -0.000000000000000000 ) ) ;
#616 = LINE ( 'NONE', #359, #378 ) ;
#617 = EDGE_LOOP ( 'NONE', ( #164, #59, #252, #479 ) ) ;
#618 = VERTEX_POINT ( 'NONE', #204 ) ;
#619 = AXIS2_PLACEMENT_3D ( 'NONE', #539, #445, #648 ) ;
#620 = CARTESIAN_POINT ( 'NONE',  ( -0.7650000000000001243, 1.100000000000000089, 0.7650000000000000133 ) ) ;
#621 = VERTEX_POINT ( 'NONE', #81 ) ;
#622 = EDGE_CURVE ( 'NONE', #43, #370, #143, .T. ) ;
#623 = ORIENTED_EDGE ( 'NONE', *, *, #242, .T. ) ;
#624 = DIRECTION ( 'NONE',  ( -0.000000000000000000, -0.000000000000000000, 1.000000000000000000 ) ) ;
#625 = ORIENTED_EDGE ( 'NONE', *, *, #599, .T. ) ;
#626 = ORIENTED_EDGE ( 'NONE', *, *, #627, .F. ) ;
#627 = EDGE_CURVE ( 'NONE', #4, #43, #499, .T. ) ;
#628 = CARTESIAN_POINT ( 'NONE',  ( -0.7650000000000000133, 2.200000000000000178, 0.7650000000000000133 ) ) ;
#629 = ORIENTED_EDGE ( 'NONE', *, *, #572, .T. ) ;
#630 = DIRECTION ( 'NONE',  ( 0.000000000000000000, 0.000000000000000000, -1.000000000000000000 ) ) ;
#631 = ADVANCED_FACE ( 'NONE', ( #288 ), #514, .F. ) ;
#632 = EDGE_LOOP ( 'NONE', ( #299, #573 ) ) ;
#633 = CARTESIAN_POINT ( 'NONE',  ( -0.9717418557618300312, 1.100000000000000089, 0.7650000000000000133 ) ) ;
#634 = VECTOR ( 'NONE', #624, 1.000000000000000000 ) ;
#635 = ORIENTED_EDGE ( 'NONE', *, *, #18, .F. ) ;
#636 = LINE ( 'NONE', #383, #293 ) ;
#637 = CARTESIAN_POINT ( 'NONE',  ( -0.5150000000000000133, 0.000000000000000000, -1.472106781186547586 ) ) ;
#638 = DIRECTION ( 'NONE',  ( 1.000000000000000000, 0.000000000000000000, 0.000000000000000000 ) ) ;
#639 = VECTOR ( 'NONE', #12, 1.000000000000000000 ) ;
#640 = ADVANCED_FACE ( 'NONE', ( #562 ), #197, .T. ) ;
#641 = DIRECTION ( 'NONE',  ( 1.000000000000000000, 0.000000000000000000, 0.000000000000000000 ) ) ;
#642 = CARTESIAN_POINT ( 'NONE',  ( -0.5150000000000000133, 0.000000000000000000, -0.2650000000000000133 ) ) ;
#643 = AXIS2_PLACEMENT_3D ( 'NONE', #23, #555, #601 ) ;
#644 = CARTESIAN_POINT ( 'NONE',  ( 0.7650000000000000133, 1.011836509645767546, 0.2650000000000000133 ) ) ;
#645 = ADVANCED_FACE ( 'NONE', ( #348 ), #411, .T. ) ;
#646 = DIRECTION ( 'NONE',  ( 1.000000000000000000, -0.000000000000000000, -0.000000000000000000 ) ) ;
#647 = DIRECTION ( 'NONE',  ( 1.000000000000000000, -0.000000000000000000, -0.000000000000000000 ) ) ;
#648 = DIRECTION ( 'NONE',  ( 0.000000000000000000, -0.1736481776669303589, 0.9848077530122080203 ) ) ;
#649 = CARTESIAN_POINT ( 'NONE',  ( -0.7650000000000000133, 1.133169058567750742, -0.9531110788291178304 ) ) ;
#650 = FACE_OUTER_BOUND ( 'NONE', #682, .T. ) ;
#651 = VECTOR ( 'NONE', #276, 1.000000000000000000 ) ;
#652 = VERTEX_POINT ( 'NONE', #91 ) ;
#653 = SURFACE_STYLE_USAGE ( .BOTH. , #450 ) ;
#654 = FACE_OUTER_BOUND ( 'NONE', #417, .T. ) ;
#655 = MANIFOLD_SOLID_BREP ( 'Boss-Extrude3', #32 ) ;
#656 = ORIENTED_EDGE ( 'NONE', *, *, #281, .T. ) ;
#657 = CARTESIAN_POINT ( 'NONE',  ( -0.7650000000000000133, 2.200000000000000178, -0.2650000000000000133 ) ) ;
#658 = CARTESIAN_POINT ( 'NONE',  ( -0.5150000000000000133, 0.000000000000000000, -0.7650000000000000133 ) ) ;
#659 = ORIENTED_EDGE ( 'NONE', *, *, #78, .F. ) ;
#660 = CARTESIAN_POINT ( 'NONE',  ( 0.8685960721893453140, 1.100000000000000089, -0.7650000000000000133 ) ) ;
#661 = ADVANCED_FACE ( 'NONE', ( #310 ), #239, .F. ) ;
#662 = PLANE ( 'NONE',  #669 ) ;
#663 = ORIENTED_EDGE ( 'NONE', *, *, #523, .T. ) ;
#664 = AXIS2_PLACEMENT_3D ( 'NONE', #367, #476, #258 ) ;
#665 = EDGE_LOOP ( 'NONE', ( #629, #315, #309, #109 ) ) ;
#666 = DIRECTION ( 'NONE',  ( -1.000000000000000000, 0.000000000000000000, -0.000000000000000000 ) ) ;
#667 = VECTOR ( 'NONE', #473, 1.000000000000000000 ) ;
#668 = CARTESIAN_POINT ( 'NONE',  ( -0.7650000000000000133, 2.200000000000000178, -0.7650000000000000133 ) ) ;
#669 = AXIS2_PLACEMENT_3D ( 'NONE', #92, #301, #604 ) ;
#670 = ORIENTED_EDGE ( 'NONE', *, *, #627, .T. ) ;
#671 = EDGE_LOOP ( 'NONE', ( #373, #170 ) ) ;
#672 = CYLINDRICAL_SURFACE ( 'NONE', #530, 0.2499999999999998890 ) ;
#673 = EDGE_LOOP ( 'NONE', ( #423, #402 ) ) ;
#674 = ORIENTED_EDGE ( 'NONE', *, *, #454, .F. ) ;
#675 = FACE_OUTER_BOUND ( 'NONE', #472, .T. ) ;
#676 = ORIENTED_EDGE ( 'NONE', *, *, #368, .F. ) ;
#677 = ORIENTED_EDGE ( 'NONE', *, *, #437, .T. ) ;
#678 = LINE ( 'NONE', #633, #341 ) ;
#679 = AXIS2_PLACEMENT_3D ( 'NONE', #300, #40, #666 ) ;
#680 = VECTOR ( 'NONE', #646, 1.000000000000000000 ) ;
#681 = ADVANCED_FACE ( 'NONE', ( #374 ), #167, .F. ) ;
#682 = EDGE_LOOP ( 'NONE', ( #49, #351, #294, #156, #98, #585, #261, #357 ) ) ;
#683 = DIRECTION ( 'NONE',  ( 1.000000000000000000, 0.000000000000000000, 0.000000000000000000 ) ) ;
ENDSEC;
END-ISO-10303-21;
